<?xml version="1.0" encoding="UTF-8"?>
<svg xmlns="http://www.w3.org/2000/svg" xmlns:xlink="http://www.w3.org/1999/xlink" width="388pt" height="165pt" viewBox="0 0 388 165" version="1.1">
<g id="surface1">
<path style=" stroke:none;fill-rule:nonzero;fill:rgb(0%,0%,0%);fill-opacity:1;" d="M 53.046875 30.632812 C 53.046875 31.242188 52.136719 31.847656 51.078125 31.847656 C 48.953125 31.847656 48.652344 35.941406 50.621094 39.125 C 51.226562 40.1875 50.773438 40.945312 49.410156 40.945312 C 48.046875 40.945312 46.984375 41.554688 46.984375 42.464844 C 46.984375 43.222656 45.921875 43.980469 44.558594 43.980469 C 43.195312 43.980469 42.742188 44.738281 43.347656 45.648438 C 43.953125 46.710938 43.5 47.164062 42.285156 46.710938 C 41.074219 46.253906 39.558594 43.828125 38.800781 41.25 C 36.980469 34.730469 35.464844 35.183594 35.464844 42.007812 C 35.464844 48.378906 38.195312 52.320312 41.832031 50.957031 C 43.347656 50.347656 43.953125 50.804688 43.648438 51.867188 C 43.195312 52.925781 39.558594 54.292969 35.464844 54.746094 L 28.039062 55.503906 L 35.617188 56.265625 C 39.859375 56.566406 43.042969 57.476562 42.890625 58.386719 C 42.589844 59.144531 41.527344 59.902344 40.617188 59.902344 C 37.132812 59.902344 35.617188 62.480469 35.617188 68.394531 C 35.464844 75.523438 36.980469 75.980469 38.800781 69.457031 C 39.558594 66.878906 41.226562 64.300781 42.4375 64 C 43.648438 63.542969 44.257812 63.695312 43.800781 64.300781 C 43.195312 64.90625 44.863281 67.335938 47.289062 69.761719 C 50.773438 73.402344 53.046875 74.3125 58.046875 74.3125 C 63.503906 74.3125 65.019531 73.550781 68.808594 69.003906 C 73.8125 63.089844 75.78125 62.328125 75.78125 66.273438 C 75.933594 69.15625 79.117188 74.3125 80.933594 74.3125 C 82.601562 74.3125 81.84375 63.542969 80.023438 61.570312 C 78.964844 60.511719 76.84375 59.902344 75.175781 60.359375 C 73.203125 60.8125 72.597656 60.511719 73.054688 58.992188 C 73.507812 57.78125 76.539062 56.566406 80.480469 56.265625 L 87.148438 55.503906 L 80.480469 54.746094 C 76.691406 54.292969 73.507812 52.925781 73.054688 51.867188 C 72.75 50.804688 73.355469 50.347656 74.871094 50.957031 C 78.359375 52.320312 81.085938 48.53125 81.238281 42.007812 C 81.539062 35.335938 79.417969 34.578125 78.054688 40.945312 C 76.691406 47.011719 74.71875 47.921875 71.386719 44.132812 C 69.871094 42.3125 68.050781 40.945312 67.292969 40.945312 C 66.535156 40.945312 65.929688 38.519531 65.929688 35.488281 C 65.929688 30.027344 65.777344 29.875 59.5625 29.574219 C 55.925781 29.421875 53.046875 29.875 53.046875 30.632812 Z M 53.046875 30.632812 "/>
<path style=" stroke:none;fill-rule:nonzero;fill:rgb(0%,0%,0%);fill-opacity:1;" d="M 21.21875 58.082031 C 21.21875 74.160156 20.765625 80.226562 19.550781 79.46875 C 17.429688 78.101562 15.15625 81.589844 15.15625 86.441406 C 15.15625 89.324219 16.519531 90.992188 20.15625 92.964844 C 24.703125 95.390625 28.949219 95.695312 60.777344 95.238281 C 100.941406 94.785156 101.546875 94.632812 100.335938 84.472656 C 99.878906 80.375 98.96875 78.859375 97 78.859375 C 94.574219 78.859375 94.273438 77.039062 94.574219 58.234375 C 94.878906 38.671875 94.726562 37.609375 91.847656 36.398438 C 88.210938 35.03125 86.695312 37.308594 89.269531 39.886719 C 90.332031 40.945312 90.9375 48.832031 90.9375 61.421875 C 91.089844 81.136719 92.300781 86.746094 96.695312 85.382812 C 98.820312 84.625 99.121094 87.351562 97 88.71875 C 96.242188 89.171875 78.8125 89.628906 58.351562 89.628906 C 37.890625 89.628906 20.460938 89.171875 19.703125 88.71875 C 17.429688 87.203125 17.882812 84.472656 20.308594 85.382812 C 23.644531 86.746094 24.25 83.105469 24.25 61.269531 C 24.25 44.585938 24.703125 40.644531 26.523438 40.035156 C 30.160156 38.519531 29.101562 35.640625 25.007812 35.640625 L 21.21875 35.640625 Z M 21.21875 58.082031 "/>
<path style=" stroke:none;fill-rule:nonzero;fill:rgb(0%,0%,0%);fill-opacity:1;" d="M 136.40625 73.097656 C 136.40625 80.832031 135.953125 88.71875 135.496094 90.539062 C 134.585938 93.722656 135.042969 94.027344 141.558594 94.027344 C 148.53125 94.027344 148.53125 94.027344 148.53125 88.71875 C 148.53125 84.472656 149.136719 83.410156 151.5625 83.410156 C 153.988281 83.410156 154.59375 84.472656 154.59375 88.71875 C 154.59375 93.570312 155.046875 94.027344 158.988281 94.027344 C 162.777344 94.027344 163.535156 93.265625 164.898438 87.960938 C 165.65625 84.625 165.960938 81.894531 165.355469 81.894531 C 163.839844 81.894531 160.808594 70.519531 161.566406 67.335938 C 162.625 63.089844 154.746094 59.144531 144.589844 59.144531 L 136.40625 59.144531 Z M 136.40625 73.097656 "/>
<path style=" stroke:none;fill-rule:nonzero;fill:rgb(0%,0%,0%);fill-opacity:1;" d="M 168.839844 63.238281 C 167.929688 66.425781 168.539062 67.789062 170.960938 69.457031 C 175.507812 72.492188 175.8125 83.257812 171.265625 84.472656 C 169.144531 85.078125 168.234375 86.59375 168.234375 89.628906 L 168.234375 94.027344 L 189.453125 94.027344 L 189.453125 89.476562 C 189.453125 86.292969 188.695312 84.925781 187.027344 84.925781 C 185.511719 84.925781 184.90625 84.015625 185.511719 82.652344 C 185.96875 81.4375 185.664062 80.375 184.753906 80.375 C 182.328125 80.375 183.996094 72.1875 187.027344 69.609375 C 189.148438 67.941406 189.605469 66.121094 188.847656 63.238281 C 187.9375 59.449219 187.332031 59.144531 178.84375 59.144531 C 170.355469 59.144531 169.75 59.296875 168.839844 63.238281 Z M 168.839844 63.238281 "/>
<path style=" stroke:none;fill-rule:nonzero;fill:rgb(0%,0%,0%);fill-opacity:1;" d="M 201.578125 60.8125 C 201.578125 61.722656 200.667969 62.179688 199.757812 61.875 C 196.273438 60.660156 194 64.90625 194 72.640625 C 194 78.859375 194.605469 80.375 197.03125 81.136719 C 198.699219 81.589844 200.667969 81.742188 201.425781 81.285156 C 203.246094 80.074219 207.640625 81.742188 207.640625 83.5625 C 207.640625 84.320312 204.609375 84.925781 200.820312 84.925781 C 193.847656 84.925781 192.789062 86.140625 194.910156 91.597656 C 195.667969 93.417969 197.941406 94.027344 203.851562 94.027344 C 213.398438 94.027344 216.734375 92.964844 216.734375 90.082031 C 216.734375 88.871094 217.492188 87.960938 218.25 87.960938 C 219.160156 87.960938 219.765625 85.53125 219.765625 82.652344 C 219.765625 79.769531 219.160156 77.34375 218.25 77.34375 C 217.492188 77.34375 216.734375 76.28125 216.734375 74.917969 C 216.734375 73.703125 216.128906 73.097656 215.21875 73.550781 C 214.460938 74.007812 213.703125 73.703125 213.703125 72.640625 C 213.703125 71.582031 212.1875 71.277344 209.15625 71.734375 C 206.578125 72.339844 204.609375 72.035156 204.609375 71.277344 C 204.609375 70.367188 207.640625 69.761719 211.429688 69.761719 C 217.492188 69.761719 218.25 69.457031 218.25 66.273438 C 218.25 64.300781 217.492188 62.027344 216.429688 60.964844 C 214.15625 58.691406 201.578125 58.539062 201.578125 60.8125 Z M 201.578125 60.8125 "/>
<path style=" stroke:none;fill-rule:nonzero;fill:rgb(0%,0%,0%);fill-opacity:1;" d="M 223.25 61.421875 C 221.886719 62.785156 221.28125 68.699219 221.28125 78.859375 L 221.28125 94.027344 L 235.375 94.027344 L 234.617188 87.203125 C 233.859375 81.4375 234.164062 80.375 236.4375 80.375 C 239.621094 80.375 240.984375 83.257812 240.984375 89.628906 C 240.984375 93.570312 241.589844 94.027344 245.53125 94.027344 L 250.078125 94.027344 L 250.078125 84.773438 C 250.078125 78.40625 249.320312 74.917969 247.652344 73.25 C 246.136719 71.734375 245.835938 70.519531 246.894531 69.914062 C 247.804688 69.304688 249.015625 66.726562 249.472656 64 C 250.382812 59.449219 250.230469 59.144531 245.835938 59.144531 C 242.5 59.144531 240.984375 60.054688 240.226562 62.179688 C 239.773438 63.847656 238.710938 65.210938 237.953125 65.210938 C 237.195312 65.210938 236.285156 66.425781 235.984375 67.789062 C 235.527344 69.304688 235.226562 68.394531 235.074219 65.816406 C 234.921875 59.296875 227.496094 56.566406 223.25 61.421875 Z M 223.25 61.421875 "/>
<path style=" stroke:none;fill-rule:nonzero;fill:rgb(0%,0%,0%);fill-opacity:1;" d="M 18.1875 103.882812 C 18.1875 105.097656 17.582031 106.15625 16.671875 106.15625 C 15.914062 106.15625 15.15625 107.21875 15.15625 108.433594 C 15.15625 109.644531 14.550781 110.707031 13.792969 110.707031 C 13.035156 110.707031 12.730469 112.074219 13.1875 113.742188 C 13.640625 115.5625 13.1875 116.773438 12.277344 116.773438 C 11.0625 116.773438 10.609375 119.808594 10.914062 126.175781 C 11.367188 134.820312 11.671875 135.730469 14.851562 136.1875 C 18.1875 136.640625 22.734375 133.457031 22.734375 130.726562 C 22.734375 129.96875 24.097656 128.90625 25.613281 128.453125 C 28.039062 127.84375 28.796875 128.753906 29.554688 132.089844 C 30.3125 135.425781 31.375 136.488281 34.101562 136.488281 C 36.222656 136.488281 38.042969 135.425781 38.648438 133.609375 C 39.859375 129.511719 38.953125 113.742188 37.4375 113.742188 C 36.679688 113.742188 36.375 112.375 36.828125 110.707031 C 37.285156 109.039062 37.132812 107.976562 36.375 108.433594 C 35.769531 108.886719 34.707031 107.523438 34.253906 105.398438 C 33.34375 102.0625 32.585938 101.609375 25.765625 101.609375 C 20.007812 101.609375 18.1875 102.214844 18.1875 103.882812 Z M 18.1875 103.882812 "/>
<path style=" stroke:none;fill-rule:nonzero;fill:rgb(0%,0%,0%);fill-opacity:1;" d="M 48.5 102.972656 C 48.5 103.730469 47.289062 104.792969 45.921875 105.25 C 42.132812 106.460938 42.285156 122.386719 46.074219 121.625 C 47.4375 121.324219 48.5 121.929688 48.5 122.992188 C 48.5 124.054688 50.015625 124.355469 53.046875 123.75 C 55.625 123.296875 57.59375 123.597656 57.59375 124.355469 C 57.59375 125.265625 54.5625 125.875 50.925781 125.875 C 44.710938 125.875 44.257812 126.175781 43.648438 130.421875 C 43.195312 133 43.347656 135.277344 43.648438 135.730469 C 45.164062 137.246094 60.472656 136.488281 61.382812 134.820312 C 61.988281 134.0625 63.203125 133.609375 64.109375 133.910156 C 66.839844 134.820312 69.566406 130.269531 69.71875 124.964844 C 69.71875 119.503906 64.414062 114.195312 59.109375 114.347656 C 57.140625 114.5 55.320312 113.589844 55.015625 112.527344 C 54.5625 111.3125 56.382812 110.707031 61.230469 110.707031 C 67.898438 110.707031 68.203125 110.554688 68.203125 106.15625 L 68.203125 101.609375 L 58.351562 101.609375 C 52.894531 101.609375 48.5 102.214844 48.5 102.972656 Z M 48.5 102.972656 "/>
<path style=" stroke:none;fill-rule:nonzero;fill:rgb(0%,0%,0%);fill-opacity:1;" d="M 75.328125 103.882812 C 73.203125 105.398438 72.296875 108.433594 71.992188 114.347656 C 71.6875 119.65625 71.992188 122.535156 72.902344 121.929688 C 73.8125 121.476562 75.328125 121.929688 76.539062 122.839844 C 77.75 123.75 80.023438 124.203125 81.84375 123.597656 C 83.511719 122.992188 84.875 123.296875 84.875 124.203125 C 84.875 125.113281 82.148438 125.875 78.964844 125.875 C 72.144531 125.875 70.78125 127.238281 72.144531 132.699219 C 73.054688 136.1875 73.8125 136.488281 81.238281 136.488281 C 86.238281 136.488281 89.421875 135.882812 89.421875 134.820312 C 89.421875 133.910156 90.785156 133.457031 92.453125 133.910156 C 94.878906 134.515625 95.484375 133.609375 96.394531 128.148438 C 97.453125 120.414062 93.664062 113.285156 88.96875 114.347656 C 87.300781 114.800781 85.179688 114.652344 83.964844 114.195312 C 80.175781 112.832031 83.359375 110.707031 89.574219 110.707031 C 95.179688 110.707031 95.484375 110.40625 95.484375 106.15625 C 95.484375 101.609375 95.484375 101.609375 86.84375 101.609375 C 81.691406 101.761719 76.84375 102.671875 75.328125 103.882812 Z M 75.328125 103.882812 "/>
<path style=" stroke:none;fill-rule:nonzero;fill:rgb(0%,0%,0%);fill-opacity:1;" d="M 99.578125 102.671875 C 97.757812 104.339844 98.363281 135.277344 100.03125 134.214844 C 100.941406 133.757812 101.546875 134.0625 101.546875 134.820312 C 101.546875 137.398438 121.097656 136.945312 123.675781 134.367188 C 128.675781 129.359375 126.101562 126.78125 114.429688 125.417969 C 110.488281 124.8125 110.640625 124.8125 115.640625 124.507812 C 120.945312 124.355469 121.25 124.054688 121.25 119.199219 C 121.25 114.042969 121.097656 113.890625 115.945312 114.800781 C 111.550781 115.5625 110.640625 115.257812 110.640625 112.984375 C 110.640625 110.707031 111.703125 110.40625 118.21875 111.011719 C 125.191406 111.769531 125.796875 111.464844 125.796875 108.585938 C 125.796875 106.765625 125.039062 104.488281 123.976562 103.429688 C 122.007812 101.457031 101.394531 100.851562 99.578125 102.671875 Z M 99.578125 102.671875 "/>
<path style=" stroke:none;fill-rule:nonzero;fill:rgb(0%,0%,0%);fill-opacity:1;" d="M 133.375 102.972656 C 133.375 103.730469 132.164062 104.792969 130.796875 105.25 C 126.859375 106.460938 126.859375 119.503906 130.648438 120.71875 C 132.164062 121.171875 133.375 122.234375 133.375 122.992188 C 133.375 124.054688 135.195312 124.203125 137.921875 123.597656 C 140.800781 122.992188 142.46875 123.144531 142.46875 124.203125 C 142.46875 125.113281 139.589844 125.875 135.648438 125.875 C 129.890625 125.875 128.828125 126.328125 128.828125 128.753906 C 128.828125 130.421875 128.375 132.699219 127.917969 134.0625 C 127.160156 136.1875 128.375 136.488281 136.101562 136.488281 C 143.984375 136.488281 145.804688 135.882812 149.894531 132.089844 C 155.503906 126.78125 156.414062 119.046875 151.5625 117.53125 C 149.894531 117.078125 148.53125 115.863281 148.53125 115.105469 C 148.53125 114.347656 146.710938 113.890625 144.589844 114.042969 C 142.316406 114.347656 140.195312 113.589844 139.890625 112.527344 C 139.4375 111.3125 141.105469 110.707031 145.347656 110.707031 C 151.257812 110.707031 151.5625 110.40625 151.5625 106.15625 L 151.5625 101.609375 L 142.46875 101.609375 C 137.46875 101.609375 133.375 102.214844 133.375 102.972656 Z M 133.375 102.972656 "/>
<path style=" stroke:none;fill-rule:nonzero;fill:rgb(0%,0%,0%);fill-opacity:1;" d="M 159.59375 104.1875 C 156.867188 106.007812 156.109375 107.976562 156.109375 112.832031 C 156.109375 120.414062 160.351562 125.113281 166.113281 123.75 C 168.082031 123.144531 169.75 123.445312 169.75 124.203125 C 169.75 125.113281 166.871094 125.875 163.382812 126.175781 C 157.320312 126.632812 156.867188 126.933594 156.414062 131.484375 L 155.957031 136.488281 L 165.050781 136.488281 C 170.660156 136.488281 174.296875 135.882812 174.296875 134.820312 C 174.296875 133.910156 175.507812 133.609375 177.175781 134.214844 C 180.207031 135.125 181.875 131.789062 181.875 123.902344 C 181.875 119.199219 176.570312 113.132812 173.386719 114.347656 C 170.8125 115.257812 166.71875 113.890625 166.71875 112.074219 C 166.71875 111.3125 169.597656 110.707031 173.234375 110.707031 C 179.296875 110.707031 179.601562 110.40625 179.90625 106.15625 L 180.207031 101.609375 L 171.570312 101.761719 C 166.265625 101.761719 161.566406 102.671875 159.59375 104.1875 Z M 159.59375 104.1875 "/>
<path style=" stroke:none;fill-rule:nonzero;fill:rgb(0%,0%,0%);fill-opacity:1;" d="M 183.390625 116.925781 C 183.390625 133.910156 184.753906 137.09375 192.03125 136.1875 C 195.820312 135.730469 196.273438 135.125 196.273438 129.96875 C 196.273438 125.113281 196.878906 124.054688 200.0625 123.296875 C 202.183594 122.839844 204.304688 121.625 204.914062 120.71875 C 205.519531 119.808594 206.125 121.476562 206.125 124.355469 C 206.125 132.847656 207.640625 136.488281 211.125 136.488281 C 216.429688 136.488281 218.097656 132.089844 218.25 118.59375 C 218.25 104.792969 216.734375 101.609375 210.21875 101.609375 C 207.488281 101.609375 205.972656 102.820312 204.609375 106.15625 C 202.789062 110.40625 200.0625 112.375 200.0625 109.496094 C 200.0625 105.855469 194.152344 101.609375 188.847656 101.609375 L 183.390625 101.609375 Z M 183.390625 116.925781 "/>
<path style=" stroke:none;fill-rule:nonzero;fill:rgb(0%,0%,0%);fill-opacity:1;" d="M 223.101562 118.59375 L 223.554688 135.730469 L 234.617188 136.1875 L 245.53125 136.640625 L 245.53125 131.179688 C 245.53125 125.875 245.53125 125.875 238.710938 125.875 C 234.921875 125.875 231.890625 125.265625 231.890625 124.660156 C 231.890625 123.902344 234.011719 123.597656 236.4375 124.054688 C 240.984375 124.660156 240.984375 124.660156 241.589844 117.988281 C 241.742188 116.925781 239.773438 115.710938 237.347656 115.257812 C 230.679688 114.195312 231.738281 111.464844 239.164062 111.011719 C 245.078125 110.554688 245.53125 110.253906 245.53125 106.007812 L 245.53125 101.609375 L 222.644531 101.609375 Z M 223.101562 118.59375 "/>
<path style=" stroke:none;fill-rule:nonzero;fill:rgb(0%,0%,0%);fill-opacity:1;" d="M 251.140625 104.640625 C 250.53125 107.066406 250.683594 127.542969 251.441406 134.515625 C 251.746094 137.398438 258.71875 136.945312 259.777344 134.0625 C 260.234375 132.699219 260.6875 129.359375 260.6875 126.328125 C 260.6875 122.839844 261.292969 121.324219 262.65625 121.777344 C 263.566406 122.082031 264.324219 123.445312 264.324219 124.8125 C 264.171875 126.175781 264.628906 126.933594 265.386719 126.480469 C 266.144531 126.023438 266.75 127.085938 266.75 128.90625 C 266.75 133.304688 270.539062 136.792969 274.632812 136.1875 C 277.964844 135.730469 278.117188 135.125 278.570312 118.59375 L 279.027344 101.609375 L 272.964844 101.609375 C 267.054688 101.609375 266.902344 101.761719 266.445312 107.21875 L 265.992188 112.984375 L 263.414062 107.21875 C 261.292969 102.671875 260.082031 101.609375 256.445312 101.609375 C 253.261719 101.609375 251.746094 102.519531 251.140625 104.640625 Z M 251.140625 104.640625 "/>
<path style=" stroke:none;fill-rule:nonzero;fill:rgb(0%,0%,0%);fill-opacity:1;" d="M 280.390625 106.15625 C 280.390625 110.101562 280.996094 110.707031 284.632812 110.707031 L 288.726562 110.707031 L 288.121094 123.597656 L 287.664062 136.488281 L 300.09375 136.488281 L 300.09375 110.707031 L 304.640625 110.707031 C 308.734375 110.707031 309.1875 110.253906 309.1875 106.15625 L 309.1875 101.609375 L 280.390625 101.609375 Z M 280.390625 106.15625 "/>
<path style=" stroke:none;fill-rule:nonzero;fill:rgb(0%,0%,0%);fill-opacity:1;" d="M 320.25 103.882812 C 319.191406 105.097656 318.28125 107.371094 318.28125 109.191406 C 318.28125 111.617188 319.039062 112.074219 321.765625 111.464844 C 324.949219 110.554688 325.101562 111.011719 325.101562 118.289062 C 325.101562 124.964844 324.648438 126.175781 321.765625 126.78125 C 318.433594 127.691406 316.765625 131.9375 319.796875 131.9375 C 320.707031 131.9375 321.3125 133 321.3125 134.214844 C 321.3125 136.035156 323.433594 136.488281 331.921875 136.488281 L 342.53125 136.488281 L 342.53125 131.789062 C 342.53125 128.453125 341.773438 126.933594 339.5 126.328125 C 337.074219 125.722656 336.46875 124.203125 336.46875 118.746094 C 336.46875 113.285156 337.074219 111.769531 339.5 111.164062 C 341.621094 110.554688 342.53125 109.039062 342.53125 106.007812 L 342.53125 101.609375 L 332.375 101.609375 C 325.40625 101.761719 321.464844 102.367188 320.25 103.882812 Z M 320.25 103.882812 "/>
<path style=" stroke:none;fill-rule:nonzero;fill:rgb(0%,0%,0%);fill-opacity:1;" d="M 349.65625 104.640625 C 347.683594 106.613281 347.078125 109.796875 347.078125 119.503906 C 347.078125 130.421875 347.382812 131.789062 350.109375 132.699219 C 351.777344 133.152344 353.140625 134.367188 353.140625 135.125 C 353.140625 135.882812 356.625 136.488281 360.71875 136.488281 C 364.960938 136.488281 368.296875 135.882812 368.296875 135.277344 C 368.296875 134.515625 369.964844 133 372.085938 131.9375 C 375.570312 130.121094 375.875 129.058594 375.875 119.65625 C 375.875 105.855469 372.691406 102.214844 360.566406 102.214844 C 354.960938 102.214844 351.472656 103.125 349.65625 104.640625 Z M 349.65625 104.640625 "/>
</g>
</svg>
