<?xml version="1.0" standalone="no"?>
<!DOCTYPE svg PUBLIC "-//W3C//DTD SVG 20010904//EN"
 "http://www.w3.org/TR/2001/REC-SVG-20010904/DTD/svg10.dtd">
<svg version="1.0" xmlns="http://www.w3.org/2000/svg"
 width="256.000000pt" height="109.000000pt" viewBox="0 0 256.000000 109.000000"
 preserveAspectRatio="xMidYMid meet">
<metadata>
Created by potrace 1.15, written by Peter Selinger 2001-2017
</metadata>
<g transform="translate(0.000000,109.000000) scale(0.100000,-0.100000)"
fill="#000000" stroke="none">
<path d="M350 888 c0 -4 -6 -8 -13 -8 -14 0 -16 -27 -3 -48 4 -7 1 -12 -8 -12
-9 0 -16 -4 -16 -10 0 -5 -7 -10 -16 -10 -9 0 -12 -5 -8 -11 4 -7 1 -10 -7 -7
-8 3 -18 19 -23 36 -12 43 -22 40 -22 -5 0 -42 18 -68 42 -59 10 4 14 1 12 -6
-3 -7 -27 -16 -54 -19 l-49 -5 50 -5 c28 -2 49 -8 48 -14 -2 -5 -9 -10 -15
-10 -23 0 -33 -17 -33 -56 -1 -47 9 -50 21 -7 5 17 16 34 24 36 8 3 12 2 9 -2
-4 -4 7 -20 23 -36 23 -24 38 -30 71 -30 36 0 46 5 71 35 33 39 46 44 46 18 1
-19 22 -53 34 -53 11 0 6 71 -6 84 -7 7 -21 11 -32 8 -13 -3 -17 -1 -14 9 3 8
23 16 49 18 l44 5 -44 5 c-25 3 -46 12 -49 19 -2 7 2 10 12 6 23 -9 41 16 42
59 2 44 -12 49 -21 7 -9 -40 -22 -46 -44 -21 -10 12 -22 21 -27 21 -5 0 -9 16
-9 36 0 36 -1 37 -42 39 -24 1 -43 -2 -43 -7z"/>
<path d="M140 707 c0 -106 -3 -146 -11 -141 -14 9 -29 -14 -29 -46 0 -19 9
-30 33 -43 30 -16 58 -18 268 -15 265 3 269 4 261 71 -3 27 -9 37 -22 37 -16
0 -18 12 -16 136 2 129 1 136 -18 144 -24 9 -34 -6 -17 -23 7 -7 11 -59 11
-142 1 -130 9 -167 38 -158 14 5 16 -13 2 -22 -5 -3 -120 -6 -255 -6 -135 0
-250 3 -255 6 -15 10 -12 28 4 22 22 -9 26 15 26 159 0 110 3 136 15 140 24
10 17 29 -10 29 l-25 0 0 -148z"/>
<path d="M900 608 c0 -51 -3 -103 -6 -115 -6 -21 -3 -23 40 -23 46 0 46 0 46
35 0 28 4 35 20 35 16 0 20 -7 20 -35 0 -32 3 -35 29 -35 25 0 30 5 39 40 5
22 7 40 3 40 -10 0 -30 75 -25 96 7 28 -45 54 -112 54 l-54 0 0 -92z"/>
<path d="M1114 673 c-6 -21 -2 -30 14 -41 30 -20 32 -91 2 -99 -14 -4 -20 -14
-20 -34 l0 -29 70 0 70 0 0 30 c0 21 -5 30 -16 30 -10 0 -14 6 -10 15 3 8 1
15 -5 15 -16 0 -5 54 15 71 14 11 17 23 12 42 -6 25 -10 27 -66 27 -56 0 -60
-1 -66 -27z"/>
<path d="M1330 689 c0 -6 -6 -9 -12 -7 -23 8 -38 -20 -38 -71 0 -41 4 -51 20
-56 11 -3 24 -4 29 -1 12 8 41 -3 41 -15 0 -5 -20 -9 -45 -9 -46 0 -53 -8 -39
-44 5 -12 20 -16 59 -16 63 0 85 7 85 26 0 8 5 14 10 14 6 0 10 16 10 35 0 19
-4 35 -10 35 -5 0 -10 7 -10 16 0 8 -4 12 -10 9 -5 -3 -10 -1 -10 6 0 7 -10 9
-30 6 -17 -4 -30 -2 -30 3 0 6 20 10 45 10 40 0 45 2 45 23 0 13 -5 28 -12 35
-15 15 -98 16 -98 1z"/>
<path d="M1473 685 c-9 -9 -13 -48 -13 -115 l0 -100 46 0 47 0 -5 45 c-5 38
-3 45 12 45 21 0 30 -19 30 -61 0 -26 4 -29 30 -29 l30 0 0 61 c0 42 -5 65
-16 76 -10 10 -12 18 -5 22 6 4 14 21 17 39 6 30 5 32 -24 32 -22 0 -32 -6
-37 -20 -3 -11 -10 -20 -15 -20 -5 0 -11 -8 -13 -17 -3 -10 -5 -4 -6 13 -1 43
-50 61 -78 29z"/>
<path d="M120 405 c0 -8 -4 -15 -10 -15 -5 0 -10 -7 -10 -15 0 -8 -4 -15 -9
-15 -5 0 -7 -9 -4 -20 3 -12 0 -20 -6 -20 -8 0 -11 -20 -9 -62 3 -57 5 -63 26
-66 22 -3 52 18 52 36 0 5 9 12 19 15 16 4 21 -2 26 -24 5 -22 12 -29 30 -29
14 0 26 7 30 19 8 27 2 131 -8 131 -5 0 -7 9 -4 20 3 11 2 18 -3 15 -4 -3 -11
6 -14 20 -6 22 -11 25 -56 25 -38 0 -50 -4 -50 -15z"/>
<path d="M320 411 c0 -5 -8 -12 -17 -15 -25 -8 -24 -113 1 -108 9 2 16 -2 16
-9 0 -7 10 -9 30 -5 17 3 30 1 30 -4 0 -6 -20 -10 -44 -10 -41 0 -44 -2 -48
-30 -3 -17 -2 -32 0 -35 10 -10 111 -5 117 6 4 5 12 8 18 6 18 -6 36 24 37 59
0 36 -35 71 -70 70 -13 -1 -25 5 -27 12 -3 8 9 12 41 12 44 0 46 1 46 30 l0
30 -65 0 c-36 0 -65 -4 -65 -9z"/>
<path d="M497 405 c-14 -10 -20 -30 -22 -69 -2 -35 0 -54 6 -50 6 3 16 0 24
-6 8 -6 23 -9 35 -5 11 4 20 2 20 -4 0 -6 -18 -11 -39 -11 -45 0 -54 -9 -45
-45 6 -23 11 -25 60 -25 33 0 54 4 54 11 0 6 9 9 20 6 16 -4 20 2 26 38 7 51
-18 98 -49 91 -11 -3 -25 -2 -33 1 -25 9 -4 23 37 23 37 0 39 2 39 30 0 30 0
30 -57 30 -34 -1 -66 -7 -76 -15z"/>
<path d="M657 413 c-12 -11 -8 -215 3 -208 6 3 10 1 10 -4 0 -17 129 -14 146
3 33 33 16 50 -61 59 -26 4 -25 4 8 6 35 1 37 3 37 35 0 34 -1 35 -35 29 -29
-5 -35 -3 -35 12 0 15 7 17 50 13 46 -5 50 -3 50 16 0 12 -5 27 -12 34 -13 13
-149 17 -161 5z"/>
<path d="M880 411 c0 -5 -8 -12 -17 -15 -26 -8 -26 -94 -1 -102 10 -3 18 -10
18 -15 0 -7 12 -8 30 -4 19 4 30 3 30 -4 0 -6 -19 -11 -45 -11 -38 0 -45 -3
-45 -19 0 -11 -3 -26 -6 -35 -5 -14 3 -16 54 -16 52 0 64 4 91 29 37 35 43 86
11 96 -11 3 -20 11 -20 16 0 5 -12 8 -26 7 -15 -2 -29 3 -31 10 -3 8 8 12 36
12 39 0 41 2 41 30 l0 30 -60 0 c-33 0 -60 -4 -60 -9z"/>
<path d="M1053 403 c-18 -12 -23 -25 -23 -57 0 -50 28 -81 66 -72 13 4 24 2
24 -3 0 -6 -19 -11 -42 -13 -40 -3 -43 -5 -46 -35 l-3 -33 60 0 c37 0 61 4 61
11 0 6 8 8 19 4 20 -6 31 16 31 68 0 31 -35 71 -56 63 -17 -6 -44 3 -44 15 0
5 19 9 43 9 40 0 42 2 44 30 l2 30 -57 -1 c-35 0 -66 -6 -79 -16z"/>
<path d="M1210 319 c0 -112 9 -133 57 -127 25 3 28 7 28 41 0 32 4 39 25 44
14 3 28 11 32 17 4 6 8 -5 8 -24 0 -56 10 -80 33 -80 35 0 46 29 47 118 0 91
-10 112 -53 112 -18 0 -28 -8 -37 -30 -12 -28 -30 -41 -30 -22 0 24 -39 52
-74 52 l-36 0 0 -101z"/>
<path d="M1472 308 l3 -113 73 -3 72 -3 0 36 c0 35 0 35 -45 35 -25 0 -45 4
-45 8 0 5 14 7 30 4 30 -4 30 -4 34 40 1 7 -12 15 -28 18 -44 7 -37 25 12 28
39 3 42 5 42 33 l0 29 -75 0 -76 0 3 -112z"/>
<path d="M1657 400 c-4 -16 -3 -151 2 -197 2 -19 48 -16 55 3 3 9 6 31 6 51 0
23 4 33 13 30 6 -2 11 -11 11 -20 -1 -9 2 -14 7 -11 5 3 9 -4 9 -16 0 -29 25
-52 52 -48 22 3 23 7 26 116 l3 112 -40 0 c-39 0 -40 -1 -43 -37 l-3 -38 -17
38 c-14 30 -22 37 -46 37 -21 0 -31 -6 -35 -20z"/>
<path d="M1850 390 c0 -26 4 -30 28 -30 l27 0 -4 -85 -3 -85 41 0 41 0 0 85 0
85 30 0 c27 0 30 3 30 30 l0 30 -95 0 -95 0 0 -30z"/>
<path d="M2113 405 c-7 -8 -13 -23 -13 -35 0 -16 5 -19 23 -15 21 6 22 3 22
-45 0 -44 -3 -52 -22 -56 -22 -6 -33 -34 -13 -34 6 0 10 -7 10 -15 0 -12 14
-15 70 -15 l70 0 0 31 c0 22 -5 32 -20 36 -16 4 -20 14 -20 50 0 36 4 46 20
50 14 4 20 14 20 34 l0 29 -67 0 c-46 -1 -72 -5 -80 -15z"/>
<path d="M2307 400 c-13 -13 -17 -34 -17 -98 0 -72 2 -81 20 -87 11 -3 20 -11
20 -16 0 -5 23 -9 50 -9 28 0 50 4 50 8 0 5 11 15 25 22 23 12 25 19 25 81 0
91 -21 115 -101 115 -37 0 -60 -6 -72 -16z"/>
</g>
</svg>
