<?xml version="1.0" standalone="no"?>
<!DOCTYPE svg PUBLIC "-//W3C//DTD SVG 20010904//EN"
 "http://www.w3.org/TR/2001/REC-SVG-20010904/DTD/svg10.dtd">
<svg version="1.0" xmlns="http://www.w3.org/2000/svg"
 width="1200.000000pt" height="1200.000000pt" viewBox="0 0 1200.000000 1200.000000"
 preserveAspectRatio="xMidYMid meet">

<g transform="translate(0.000000,1200.000000) scale(0.100000,-0.100000)"
fill="#000000" stroke="none">
<path d="M6140 10008 c-162 -363 -301 -669 -310 -678 -8 -10 -181 -152 -385
-316 -203 -164 -510 -412 -682 -551 -172 -139 -317 -253 -323 -253 -6 0 -10
25 -10 59 0 32 -3 72 -6 88 -5 28 8 39 358 323 200 162 504 408 676 548 200
162 310 257 305 265 -17 29 -76 97 -85 97 -5 0 -158 -121 -341 -269 -183 -148
-465 -377 -627 -508 l-295 -239 -7 50 c-4 28 -33 422 -64 876 -31 454 -58 827
-60 829 -4 4 -79 0 -838 -54 -275 -20 -501 -37 -502 -38 -3 -2 112 -1665 119
-1732 3 -25 127 -302 327 -730 321 -689 422 -905 424 -905 1 0 156 54 346 119
l345 119 -4 113 -3 113 23 -27 24 -28 260 211 c142 117 276 225 297 241 l37
30 -23 -53 c-126 -281 -203 -458 -201 -458 12 0 1540 531 1546 537 3 5 115
253 248 553 133 300 246 549 250 553 8 8 1013 -799 1019 -817 4 -12 9 -10
-1613 -567 -720 -248 -1434 -493 -1585 -546 -889 -306 -2993 -1031 -3092
-1065 -70 -24 -118 -45 -118 -53 0 -12 718 -2106 724 -2113 2 -1 48 13 102 32
54 19 511 176 1014 349 503 174 1577 543 2385 822 809 279 2129 733 2935 1010
1663 572 1640 563 1640 577 0 5 -120 357 -266 781 -146 425 -309 898 -361
1052 -53 154 -97 281 -98 282 0 1 -97 -31 -215 -73 -118 -41 -220 -72 -227
-70 -7 3 -343 272 -745 599 -403 326 -802 648 -885 716 -84 68 -153 125 -153
128 0 2 25 59 55 126 30 66 52 124 47 128 -10 9 -1069 479 -1079 479 -5 0
-141 -298 -303 -662z m1402 -365 c795 -642 1488 -1206 1488 -1212 0 -12 -163
-61 -174 -52 -6 4 -274 221 -596 481 -322 261 -668 541 -770 623 -102 82 -188
153 -193 157 -6 6 50 150 59 150 2 0 86 -66 186 -147z m125 -495 c236 -190
560 -454 722 -585 162 -131 295 -242 295 -247 1 -8 -53 -29 -152 -60 -15 -5
-114 70 -450 341 -236 191 -541 438 -676 547 -135 109 -246 201 -246 203 0 15
66 153 72 151 4 -2 200 -159 435 -350z m-44 -370 c723 -584 719 -581 710 -588
-20 -18 -174 -61 -186 -52 -16 13 -434 351 -810 655 -169 136 -307 252 -307
257 0 12 61 150 67 150 2 0 239 -190 526 -422z m-1994 83 l-72 -162 -231 -188
c-606 -491 -858 -693 -861 -690 -1 2 -6 47 -10 100 l-7 96 328 266 c181 146
462 374 624 505 162 132 296 238 298 237 2 -2 -29 -75 -69 -164z m-230 -518
c-11 -27 -44 -100 -73 -163 l-52 -115 -104 -85 c-57 -47 -232 -189 -389 -317
l-286 -232 -7 37 c-4 20 -7 66 -7 102 l-1 66 197 159 c606 490 736 595 739
595 1 0 -6 -21 -17 -47z m3656 -858 c29 -28 31 -51 9 -83 -37 -53 -111 -48
-134 9 -10 24 -10 33 4 54 32 48 85 57 121 20z m520 -44 c76 -34 125 -114 125
-201 0 -200 -276 -305 -407 -156 -108 123 -71 281 82 352 62 29 143 31 200 5z
m-406 -296 c35 -102 64 -192 65 -201 1 -10 -16 -22 -49 -35 -27 -10 -53 -19
-56 -19 -6 0 -139 378 -139 396 0 10 73 42 100 43 11 1 33 -53 79 -184z m-605
56 l17 -50 41 15 c22 8 45 14 50 14 9 0 38 -60 38 -79 0 -5 -22 -17 -49 -26
l-49 -16 29 -86 c16 -47 34 -92 40 -99 15 -19 58 -18 79 1 16 14 20 12 49 -21
25 -28 29 -39 21 -49 -23 -28 -96 -55 -148 -55 -76 0 -103 29 -152 160 -26 69
-43 104 -52 101 -7 -2 -21 -6 -30 -8 -17 -5 -24 5 -42 63 -5 18 -1 24 24 32
35 13 34 8 15 62 -8 24 -14 44 -13 46 4 3 102 43 109 43 3 1 13 -21 23 -48z
m-284 -171 c65 -18 97 -64 150 -218 l49 -140 -56 -21 c-31 -12 -60 -18 -63
-14 -4 4 -24 59 -45 120 -20 62 -45 123 -54 135 -38 46 -136 16 -153 -47 -5
-21 3 -59 32 -149 22 -66 36 -123 32 -127 -11 -9 -103 -41 -107 -37 -6 6 -135
382 -135 394 0 5 23 18 51 28 43 16 53 17 60 5 5 -8 9 -17 9 -20 0 -3 20 13
44 36 57 56 119 74 186 55z m714 -61 c20 -16 26 -29 26 -58 0 -48 -28 -75 -77
-75 -44 0 -73 32 -73 79 0 38 37 75 75 75 12 0 34 -9 49 -21z m-1213 -120 c53
-16 103 -60 128 -114 11 -24 21 -49 21 -54 0 -5 -30 -19 -67 -32 -144 -47
-233 -81 -233 -90 0 -14 57 -39 89 -39 44 0 80 16 112 51 l28 31 41 -23 c22
-13 40 -26 40 -30 0 -5 -14 -24 -32 -44 -60 -69 -167 -103 -261 -84 -92 20
-167 119 -167 221 0 51 46 135 91 165 76 50 139 63 210 42z m-464 -166 c48
-22 77 -70 122 -204 21 -62 42 -121 45 -129 5 -12 -8 -21 -53 -37 l-60 -22
-42 122 c-57 161 -87 189 -158 152 -53 -27 -54 -77 -6 -211 19 -53 35 -102 35
-109 0 -11 -106 -53 -113 -44 -2 2 -23 58 -46 124 -23 65 -49 127 -58 137 -26
29 -79 23 -114 -11 -16 -16 -29 -38 -29 -48 0 -11 18 -73 40 -138 22 -65 37
-122 32 -125 -11 -10 -103 -43 -107 -38 -6 6 -135 382 -135 393 0 6 23 19 51
29 43 15 53 15 60 4 5 -7 9 -17 9 -21 0 -4 15 9 32 29 18 20 47 43 65 50 44
19 123 18 151 -2 12 -8 22 -11 22 -5 0 6 15 27 32 47 60 68 152 92 225 57z
m-739 -241 c9 -6 11 -21 6 -49 l-6 -40 -54 -6 c-70 -7 -128 -35 -132 -64 -4
-29 21 -36 88 -23 135 26 189 4 215 -88 9 -33 -28 -102 -71 -131 -55 -38 -132
-60 -208 -61 l-68 0 6 31 c3 17 6 39 6 49 0 15 11 18 79 21 86 4 136 28 136
65 0 21 -14 22 -145 10 -66 -6 -79 -5 -107 13 -36 23 -60 83 -49 125 9 36 59
91 104 112 71 34 174 52 200 36z m-390 -140 c9 -6 11 -21 6 -49 l-6 -40 -54
-6 c-70 -7 -128 -35 -132 -64 -4 -29 21 -36 88 -23 135 26 189 4 215 -88 9
-33 -28 -102 -71 -131 -55 -38 -132 -60 -208 -61 l-68 0 6 31 c3 17 6 39 6 49
0 15 11 18 79 21 86 4 136 28 136 65 0 21 -14 22 -145 10 -66 -6 -79 -5 -107
13 -36 23 -60 83 -49 125 9 36 59 91 104 112 71 34 174 52 200 36z m-467 -163
c53 -16 103 -60 128 -114 11 -24 21 -49 21 -54 0 -5 -30 -19 -67 -32 -144 -47
-233 -81 -233 -90 0 -14 57 -39 89 -39 44 0 80 16 112 51 l28 31 41 -23 c22
-13 40 -26 40 -30 0 -17 -65 -81 -101 -99 -63 -33 -125 -42 -188 -29 -46 9
-64 19 -101 58 -123 126 -76 305 97 367 47 16 85 17 134 3z m-403 -137 c9 -6
11 -21 6 -49 l-6 -40 -54 -6 c-70 -7 -128 -35 -132 -64 -4 -29 21 -36 88 -23
135 26 189 4 215 -88 9 -33 -28 -102 -71 -131 -55 -38 -132 -60 -208 -61 l-68
0 6 31 c3 17 6 39 6 49 0 15 11 18 79 21 86 4 136 28 136 65 0 21 -14 22 -145
10 -66 -6 -79 -5 -107 13 -36 23 -60 83 -49 125 9 36 59 91 104 112 71 34 174
52 200 36z m-393 -131 c3 -6 3 -27 -1 -49 -6 -39 -6 -39 -60 -45 -70 -7 -128
-35 -132 -64 -4 -29 21 -36 88 -23 126 24 191 2 210 -71 10 -37 9 -47 -12 -88
-20 -38 -35 -52 -91 -80 -57 -29 -80 -35 -154 -39 l-86 -5 6 33 c4 18 7 40 7
50 0 15 11 18 79 21 86 4 136 28 136 65 0 21 -14 22 -145 10 -66 -6 -79 -5
-107 13 -36 23 -60 83 -49 125 9 36 59 91 104 112 72 35 194 55 207 35z m-426
-291 c105 -112 187 -207 183 -211 -4 -4 -32 -15 -62 -24 l-54 -18 -43 47 -43
47 -116 -38 c-128 -42 -134 -47 -134 -128 0 -49 13 -41 -174 -104 l-90 -30
-87 55 c-49 31 -92 53 -97 50 -5 -3 -15 -19 -22 -35 -10 -25 -9 -38 4 -78 9
-26 13 -50 9 -53 -13 -11 -104 -42 -108 -38 -3 2 -47 128 -99 280 l-95 277 59
19 59 20 16 -41 c8 -23 32 -94 53 -157 l39 -114 25 44 c14 25 41 74 59 109 33
61 37 65 98 88 35 13 66 22 68 20 2 -2 -19 -52 -47 -111 -27 -59 -50 -109 -50
-112 0 -2 55 -40 123 -84 104 -68 123 -77 129 -62 4 9 16 134 28 277 11 143
23 270 25 282 4 16 20 26 62 41 54 18 59 18 75 3 9 -9 102 -108 207 -221z
m-1524 -185 c29 -28 31 -51 9 -83 -37 -53 -111 -48 -134 9 -10 24 -10 33 4 54
32 48 85 57 121 20z m463 -33 c9 -6 11 -21 6 -49 l-6 -40 -54 -6 c-70 -7 -128
-35 -132 -64 -4 -29 21 -36 88 -23 135 26 189 4 215 -88 9 -33 -28 -102 -71
-131 -55 -38 -132 -60 -208 -61 l-68 0 6 31 c3 17 6 39 6 49 0 15 11 18 79 21
86 4 136 28 136 65 0 21 -14 22 -145 10 -66 -6 -79 -5 -107 13 -36 23 -60 83
-49 125 9 36 59 91 104 112 71 34 174 52 200 36z m-693 -144 c78 -40 126 -140
105 -220 -7 -23 -21 -55 -32 -71 -11 -15 -19 -29 -17 -31 2 -2 39 -29 82 -61
43 -32 74 -61 70 -65 -4 -4 -32 -15 -61 -25 l-54 -17 -46 33 c-26 18 -60 43
-76 55 -28 21 -31 21 -75 7 -25 -9 -50 -19 -55 -23 -4 -5 2 -38 14 -75 12 -36
20 -68 19 -70 -7 -6 -113 -44 -116 -41 -2 1 -43 120 -92 263 l-90 261 117 41
c64 22 135 45 157 50 44 11 118 5 150 -11z m344 -163 c35 -102 64 -192 65
-201 1 -10 -16 -22 -49 -35 -27 -10 -53 -19 -56 -19 -6 0 -139 378 -139 396 0
10 72 41 100 43 11 1 33 -51 79 -184z"/>
<path d="M9389 7321 c-36 -36 -40 -98 -9 -149 66 -108 227 -32 191 90 -19 61
-51 88 -106 88 -38 0 -52 -5 -76 -29z"/>
<path d="M7651 6746 c-13 -7 -30 -24 -37 -37 -17 -31 -18 -73 -1 -67 6 3 49
17 95 32 45 15 82 31 82 36 0 5 -12 18 -26 29 -30 24 -78 27 -113 7z"/>
<path d="M5588 6033 c-14 -9 -31 -27 -37 -40 -15 -33 -14 -66 2 -61 6 3 49 17
95 32 45 15 82 31 82 36 0 5 -12 18 -26 29 -32 25 -79 27 -116 4z"/>
<path d="M4259 5658 c-1 -7 -4 -57 -8 -111 l-6 -98 23 6 c13 3 49 16 82 28
l58 22 -74 83 c-41 45 -74 77 -75 70z"/>
<path d="M2538 5102 c-26 -9 -49 -20 -53 -23 -3 -4 9 -45 26 -93 35 -97 25
-93 129 -52 42 16 59 29 72 54 18 37 11 81 -18 113 -22 24 -90 24 -156 1z"/>
<path d="M1540 10163 c-217 -101 -399 -188 -403 -192 -7 -7 441 -976 1495
-3233 l111 -236 306 105 c168 58 359 123 424 145 94 32 118 44 114 57 -5 20
-1638 3524 -1646 3532 -3 4 -184 -76 -401 -178z"/>
<path d="M9305 5904 c-1703 -586 -1552 -532 -1558 -555 -5 -19 8 -19 576 -19
l581 0 145 86 c526 312 1484 882 1521 905 25 16 41 28 35 28 -5 0 -590 -200
-1300 -445z"/>
<path d="M5980 4759 c-542 -186 -993 -342 -1002 -346 -15 -7 -8 -28 63 -178
44 -93 144 -308 222 -477 l142 -307 525 -3 525 -3 -143 -40 c-79 -22 -148 -43
-153 -46 -11 -6 21 -139 33 -139 5 0 190 52 411 115 l403 115 297 -2 298 -3
-662 -190 c-364 -104 -663 -194 -665 -200 -6 -15 32 -130 42 -129 5 1 421 119
925 263 l916 261 297 -2 297 -3 -1171 -335 c-644 -184 -1176 -338 -1182 -342
-8 -4 -5 -26 8 -73 16 -56 22 -66 39 -62 29 5 2419 690 2424 694 5 4 -11 71
-24 106 -7 16 42 17 934 17 l941 0 0 825 0 825 -1877 -1 -1878 0 -985 -340z
m3805 -502 c0 -104 -3 -137 -12 -137 -7 0 -13 7 -13 16 0 14 -2 14 -22 0 -36
-26 -85 -20 -119 13 -82 83 20 218 116 155 l25 -16 0 57 c0 41 3 56 12 53 9
-3 13 -42 13 -141z m-2833 105 c19 -19 2 -24 -41 -12 -54 14 -96 -3 -96 -40 0
-22 8 -28 63 -46 77 -27 92 -39 92 -74 0 -46 -43 -73 -108 -68 -31 3 -60 12
-69 21 -25 24 -13 28 39 10 59 -19 103 -3 103 37 0 22 -8 28 -65 47 -63 22
-90 43 -90 71 0 23 20 53 43 62 28 12 115 6 129 -8z m1262 -54 c22 -37 43 -65
47 -62 4 2 24 33 45 69 21 36 44 65 51 65 19 0 18 -3 -37 -91 -40 -65 -50 -89
-50 -125 0 -32 -4 -44 -15 -44 -11 0 -15 12 -15 48 0 48 -1 50 -97 205 -3 5 3
7 13 5 10 -1 36 -33 58 -70z m1083 57 c52 -22 30 -39 -25 -20 -37 13 -47 13
-76 1 -93 -39 -87 -164 8 -196 28 -9 42 -8 72 5 48 20 70 4 26 -19 -118 -61
-246 59 -187 175 33 62 108 85 182 54z m-2142 -61 c20 -13 45 -60 45 -85 0 -5
-38 -9 -85 -9 l-85 0 12 -25 c15 -34 63 -49 99 -31 19 9 31 11 35 4 10 -17
-12 -30 -60 -35 -40 -5 -48 -2 -76 25 -82 83 18 220 115 156z m226 -3 c32 -26
20 -35 -22 -17 -55 22 -100 -5 -101 -63 -2 -58 53 -92 105 -66 38 19 50 9 18
-16 -60 -49 -151 0 -151 81 0 81 91 130 151 81z m99 -49 c0 -81 14 -105 59
-105 50 0 63 21 64 102 0 52 4 71 14 71 10 0 13 -23 13 -100 0 -60 -4 -100
-10 -100 -5 0 -10 7 -10 16 0 14 -2 14 -22 0 -25 -18 -70 -21 -98 -6 -25 13
-40 62 -40 131 0 46 3 59 15 59 12 0 15 -14 15 -68z m250 52 c0 -14 2 -14 22
0 25 17 58 21 58 7 0 -5 -14 -14 -30 -20 -37 -12 -50 -44 -50 -117 0 -30 -4
-54 -10 -54 -6 0 -10 40 -10 100 0 60 4 100 10 100 6 0 10 -7 10 -16z m255 0
c20 -13 45 -60 45 -85 0 -5 -38 -9 -85 -9 l-85 0 12 -25 c15 -34 63 -49 99
-31 19 9 31 11 35 4 10 -17 -12 -30 -60 -35 -40 -5 -48 -2 -76 25 -82 83 18
220 115 156z m546 -12 c26 -24 32 -36 32 -72 0 -36 -6 -48 -32 -72 -43 -39
-92 -38 -132 1 -62 62 -20 171 65 171 25 0 45 -8 67 -28z m109 -40 c0 -81 14
-105 59 -105 50 0 63 21 64 102 0 52 4 71 14 71 10 0 13 -23 13 -100 0 -60 -4
-100 -10 -100 -5 0 -10 7 -10 16 0 14 -2 14 -22 0 -25 -18 -70 -21 -98 -6 -25
13 -40 62 -40 131 0 46 3 59 15 59 12 0 15 -14 15 -68z m250 52 c0 -14 2 -14
22 0 25 17 58 21 58 7 0 -5 -14 -14 -30 -20 -37 -12 -50 -44 -50 -117 0 -30
-4 -54 -10 -54 -6 0 -10 40 -10 100 0 60 4 100 10 100 6 0 10 -7 10 -16z m631
-12 c26 -24 32 -36 32 -72 0 -36 -6 -48 -32 -72 -43 -39 -92 -38 -132 1 -62
62 -20 171 65 171 25 0 45 -8 67 -28z m464 12 c20 -13 45 -60 45 -85 0 -5 -38
-9 -85 -9 l-85 0 12 -25 c15 -34 63 -49 99 -31 19 9 31 11 35 4 10 -17 -12
-30 -60 -35 -40 -5 -48 -2 -76 25 -82 83 18 220 115 156z"/>
<path d="M9665 4290 c-30 -11 -46 -35 -47 -69 -2 -79 102 -103 132 -30 24 57
-30 119 -85 99z"/>
<path d="M7070 4287 c-14 -7 -26 -23 -28 -35 -3 -21 0 -22 62 -22 70 0 77 5
49 38 -24 27 -53 34 -83 19z"/>
<path d="M7900 4287 c-14 -7 -26 -23 -28 -35 -3 -21 0 -22 62 -22 70 0 77 5
49 38 -24 27 -53 34 -83 19z"/>
<path d="M8445 4290 c-30 -11 -46 -35 -47 -69 -2 -79 102 -103 132 -30 24 57
-30 119 -85 99z"/>
<path d="M9435 4290 c-30 -11 -46 -35 -47 -69 -2 -79 102 -103 132 -30 24 57
-30 119 -85 99z"/>
<path d="M9900 4287 c-14 -7 -26 -23 -28 -35 -3 -21 0 -22 62 -22 70 0 77 5
49 38 -24 27 -53 34 -83 19z"/>
<path d="M4312 4185 c-228 -79 -415 -145 -417 -147 -5 -6 839 -1808 848 -1808
7 0 157 68 322 145 44 21 170 80 280 131 110 51 200 97 200 102 0 21 -800
1722 -809 1721 -6 0 -197 -65 -424 -144z"/>
<path d="M3523 3913 l-133 -45 0 -31 c1 -61 147 -2117 151 -2121 2 -1 303 18
669 43 l665 46 -3 110 c-2 61 -5 111 -7 113 -1 2 -55 -22 -119 -52 -103 -49
-117 -53 -125 -38 -5 9 -211 451 -459 982 -247 531 -458 982 -468 1003 -10 20
-22 37 -28 36 -6 0 -71 -21 -143 -46z"/>
<path d="M2893 3696 l-263 -91 0 -77 0 -78 281 0 281 0 -5 43 c-4 23 -9 97
-13 165 -4 67 -9 124 -13 126 -3 1 -124 -38 -268 -88z"/>
<path d="M3013 2987 c-56 -128 -104 -238 -105 -245 -3 -13 328 -170 337 -160
2 2 -6 147 -18 321 l-22 317 -45 0 -45 -1 -102 -232z"/>
</g>
</svg>
